<?xml version="1.0" encoding="utf-8"?>
<!-- Svg Vector Icons : http://www.onlinewebfonts.com/icon -->
<!DOCTYPE svg PUBLIC "-//W3C//DTD SVG 1.1//EN" "http://www.w3.org/Graphics/SVG/1.1/DTD/svg11.dtd">
<svg version="1.1" xmlns="http://www.w3.org/2000/svg" xmlns:xlink="http://www.w3.org/1999/xlink" x="0px" y="0px" viewBox="0 0 1000 1000" enable-background="new 0 0 1000 1000" xml:space="preserve">
<metadata> Svg Vector Icons : http://www.onlinewebfonts.com/icon </metadata>
<g><g><g><g><path d="M500,10C229.4,10,10,229.4,10,500s219.4,490,490,490s490-219.4,490-490C990,229.3,770.6,10,500,10z M377.5,737.3H255V308.6h122.5V737.3z M320,282.3c-31.7,0-57.4-25.7-57.4-57.5s25.7-57.5,57.4-57.5c31.7,0.1,57.5,25.8,57.5,57.5C377.5,256.6,351.8,282.3,320,282.3z M806.2,737.3H683.7V472.3c0-31.1-8.9-52.8-47-52.8c-63.3,0-75.5,52.8-75.5,52.8v265.1H438.7V308.6h122.5v41c17.5-13.4,61.2-40.9,122.5-40.9c39.7,0,122.5,23.8,122.5,167.3V737.3L806.2,737.3z"/></g></g><g></g><g></g><g></g><g></g><g></g><g></g><g></g><g></g><g></g><g></g><g></g><g></g><g></g><g></g><g></g></g><g></g><g></g><g></g><g></g><g></g><g></g><g></g><g></g><g></g><g></g><g></g><g></g><g></g><g></g><g></g></g>
</svg>